<?xml version="1.0" encoding="UTF-8"?>
<svg width="45px" height="45px" viewBox="0 0 45 45" version="1.1" xmlns="http://www.w3.org/2000/svg" xmlns:xlink="http://www.w3.org/1999/xlink">
    <!-- Generator: Sketch 44.1 (41455) - http://www.bohemiancoding.com/sketch -->
    <title>Instagram</title>
    <desc>Created with Sketch.</desc>
    <defs></defs>
    <g id="Symbols" stroke="none" stroke-width="1" fill="none" fill-rule="evenodd">
        <g id="Footer" transform="translate(-1175.000000, -30.000000)">
            <g id="Stacked-Group" transform="translate(980.000000, 30.000000)">
                <g id="Instagram" transform="translate(195.000000, 0.000000)">
                    <circle id="Oval" fill-opacity="0.5" fill="#FFFFFF" cx="22.5" cy="22.5" r="22.5"></circle>
                    <path d="M22.9965298,11.0433575 C20.0100734,11.0433575 19.6355496,11.0559299 18.4626964,11.1090809 C17.2922004,11.1621018 16.4928671,11.3467429 15.7933631,11.6167463 C15.0702877,11.8958106 14.456994,12.2692547 13.8456647,12.8764156 C13.2342917,13.4836199 12.8583274,14.0926884 12.5773036,14.8108335 C12.3054464,15.5055678 12.1195813,16.2994508 12.0661528,17.4619657 C12.0126369,18.626865 12.0000218,18.9987483 12.0000218,21.9648846 C12.0000218,24.9310208 12.0126369,25.3029475 12.0661528,26.4678468 C12.1195813,27.6303184 12.3054464,28.4242447 12.5773036,29.1189357 C12.8583274,29.8370807 13.2342917,30.4461926 13.8456647,31.0533535 C14.456994,31.6605578 15.0702877,32.0339585 15.7933631,32.3131095 C16.4928671,32.5830696 17.2922004,32.7677107 18.4626964,32.820775 C19.6355496,32.8738826 20.0100734,32.886455 22.9965298,32.886455 C25.9830298,32.886455 26.3574663,32.8738826 27.5303631,32.820775 C28.7008591,32.7677107 29.5001925,32.5830696 30.1996964,32.3131095 C30.9228155,32.0339585 31.5360655,31.6605578 32.1473948,31.0533535 C32.7587679,30.4461926 33.1347321,29.8371241 33.415756,29.1189357 C33.6876131,28.4242447 33.8735218,27.6303184 33.9269067,26.4678468 C33.9804226,25.3029475 33.9930813,24.9310208 33.9930813,21.9648846 C33.9930813,18.9987917 33.9804226,18.626865 33.9269067,17.4619657 C33.8735218,16.2994508 33.6876131,15.5055678 33.415756,14.8108335 C33.1347321,14.0926884 32.7587679,13.4836199 32.1473948,12.8764156 C31.5360655,12.2692547 30.9228155,11.8958106 30.1996964,11.6167463 C29.5001925,11.3467429 28.7008591,11.1621018 27.5303631,11.1090809 C26.3574663,11.0559299 25.9830298,11.0433575 22.9965298,11.0433575 M22.9965298,13.0112006 C25.932744,13.0112006 26.2805099,13.022299 27.4400496,13.074843 C28.5122004,13.1234419 29.0944583,13.3013633 29.4819464,13.4509317 C29.9952361,13.6490556 30.3615972,13.8857205 30.746379,14.2678785 C31.1311607,14.65008 31.3694504,15.0138996 31.5689782,15.5236894 C31.7195298,15.9085354 31.8986726,16.4868231 31.9476052,17.5516633 C32.0004663,18.7032966 32.0116845,19.0487345 32.0116845,21.9648846 C32.0116845,24.881078 32.0004663,25.2265159 31.9476052,26.3781058 C31.8986726,27.4429894 31.7195298,28.0212771 31.5689782,28.4061231 C31.3694504,28.9158695 31.1311607,29.2797325 30.746379,29.6618906 C30.3615972,30.044092 29.9952361,30.2807569 29.4819464,30.4788808 C29.0944583,30.6284059 28.5122004,30.8063706 27.4400496,30.8549261 C26.2806845,30.9074701 25.9329623,30.9186119 22.9965298,30.9186119 C20.0600972,30.9186119 19.712375,30.9074701 18.5530099,30.8549261 C17.4808591,30.8063706 16.8985575,30.6284059 16.5110694,30.4788808 C15.9978234,30.2807569 15.6314623,30.044092 15.2466806,29.6618906 C14.8618988,29.2797325 14.6235655,28.9158695 14.4240813,28.4061231 C14.2735298,28.0212771 14.0943869,27.4429894 14.0454544,26.3781492 C13.9925496,25.2265159 13.981375,24.881078 13.981375,21.9648846 C13.981375,19.0487345 13.9925496,18.7032966 14.0454544,17.5516633 C14.0943869,16.4868231 14.2735298,15.9085354 14.4240813,15.5236894 C14.6235655,15.0138996 14.8618988,14.65008 15.2466806,14.2679219 C15.6314623,13.8857205 15.9978234,13.6490556 16.5110694,13.4509317 C16.8985575,13.3013633 17.4808591,13.1234419 18.5529663,13.074843 C19.7125496,13.022299 20.0603155,13.0112006 22.9965298,13.0112006" id="Fill-1" fill="#4D4D4D"></path>
                    <path d="M22.9965298,25.6054225 C20.9721369,25.6054225 19.330998,23.9754739 19.330998,21.9648846 C19.330998,19.9542952 20.9721369,18.32439 22.9965298,18.32439 C25.0209226,18.32439 26.6620615,19.9542952 26.6620615,21.9648846 C26.6620615,23.9754739 25.0209226,25.6054225 22.9965298,25.6054225 M22.9965298,16.3565469 C19.8778552,16.3565469 17.3496448,18.867475 17.3496448,21.9648846 C17.3496448,25.0623375 19.8778552,27.5732656 22.9965298,27.5732656 C26.1152044,27.5732656 28.643371,25.0623375 28.643371,21.9648846 C28.643371,18.867475 26.1152044,16.3565469 22.9965298,16.3565469" id="Fill-4" fill="#4D4D4D"></path>
                    <path d="M30.1860817,16.1349602 C30.1860817,16.8587845 29.5953119,17.4455261 28.8665183,17.4455261 C28.1377246,17.4455261 27.5469111,16.8587845 27.5469111,16.1349602 C27.5469111,15.4111359 28.1377246,14.8243943 28.8665183,14.8243943 C29.5953119,14.8243943 30.1860817,15.4111359 30.1860817,16.1349602" id="Fill-6" fill="#4D4D4D"></path>
                </g>
            </g>
        </g>
    </g>
</svg>