<?xml version="1.0" encoding="UTF-8"?>
<svg width="45px" height="45px" viewBox="0 0 45 45" version="1.1" xmlns="http://www.w3.org/2000/svg" xmlns:xlink="http://www.w3.org/1999/xlink">
    <!-- Generator: Sketch 44.1 (41455) - http://www.bohemiancoding.com/sketch -->
    <title>LinkedIn</title>
    <desc>Created with Sketch.</desc>
    <defs></defs>
    <g id="Symbols" stroke="none" stroke-width="1" fill="none" fill-rule="evenodd">
        <g id="Footer" transform="translate(-1260.000000, -30.000000)">
            <g id="Stacked-Group" transform="translate(980.000000, 30.000000)">
                <g id="LinkedIn" transform="translate(280.000000, 0.000000)">
                    <circle id="Oval" fill-opacity="0.5" fill="#FFFFFF" cx="22.5" cy="22.5" r="22.5"></circle>
                    <path d="M15,19.8409091 L15,29.7272727 L18.2045455,29.7272727 L18.2045455,19.8409091 L15,19.8409091 Z M16.8409091,15 C15.75,15 15,15.75 15,16.7045455 C15,17.6590909 15.6818182,18.4090909 16.7727273,18.4090909 L16.7727273,18.4090909 C17.8636364,18.4090909 18.6136364,17.6590909 18.6136364,16.7045455 C18.6136364,15.75 17.9318182,15 16.8409091,15 Z M26.3181818,19.8409091 C24.6136364,19.8409091 23.8636364,20.7954545 23.4545455,21.4772727 L23.4545455,20.0454545 L20.25,20.0454545 C20.3181818,21 20.25,29.9318182 20.25,29.9318182 L23.4545455,29.9318182 L23.4545455,24.4090909 C23.4545455,24.1363636 23.4545455,23.7954545 23.5909091,23.5909091 C23.7954545,22.9772727 24.3409091,22.3636364 25.2272727,22.3636364 C26.3863636,22.3636364 26.8636364,23.25 26.8636364,24.6136364 L26.8636364,30 L30,30 L30,24.3409091 C30,21.2727273 28.4318182,19.8409091 26.3181818,19.8409091 Z" id="Logo_LinkedIn" fill="#4D4D4D" fill-rule="nonzero"></path>
                </g>
            </g>
        </g>
    </g>
</svg>