<svg width="29" height="35" viewBox="0 0 29 35" xmlns="http://www.w3.org/2000/svg" xmlns:xlink="http://www.w3.org/1999/xlink">
  <title>
    Logo_Symbol Copy
  </title>
  <defs>
    <path d="M25.14 7.502c3.103.068 6.553 2.092 9.23 5.414 2.87 3.563 4.393 8.084 4.29 12.73-.132 6.056-2.693 9.9-4.82 12.058-2.666 2.706-6.2 4.28-9.453 4.208-3.253-.072-6.715-1.797-9.26-4.618-2.03-2.248-4.42-6.2-4.288-12.257.1-4.646 1.82-9.095 4.843-12.53 2.82-3.2 6.354-5.073 9.457-5.005zm-.085 3.878c-3.626-.08-10.153 5.34-10.338 13.742-.184 8.4 5.706 12.823 9.754 12.912 4.052.088 10.13-4.072 10.312-12.473.185-8.4-6.1-14.1-9.727-14.18zm5.31 13.215c-.8-.017-1.493-.614-1.608-1.434-.43-3.11-3.356-5.585-4.208-5.803-.89-.227-1.427-1.132-1.2-2.022.225-.89 1.13-1.43 2.02-1.2 2.324.593 6.082 4.226 6.682 8.57.126.91-.51 1.75-1.42 1.875-.09.013-.178.018-.266.015z" id="a"/>
  </defs>
  <g transform="translate(-10 -7)" fill="none" fill-rule="evenodd">
    <mask id="b" fill="#fff">
      <use xlink:href="#a"/>
    </mask>
    <use fill="#FFF" xlink:href="#a"/>
    <path d="M0 0h200v200H0z" transform="translate(-75 -75)" mask="url(#b)" fill="#FFF"/>
  </g>
</svg>
